<?xml version="1.0" encoding="utf-8"?>
<!-- Generator: Avocode 2.6.0 - http://avocode.com -->
<svg height="50" width="68" xmlns:xlink="http://www.w3.org/1999/xlink" xmlns="http://www.w3.org/2000/svg" viewBox="0 0 68 50">
    <path fill="#66bd38" fill-rule="evenodd" d="M 31.51 19.3 C 25.73 19.3 25.42 12.63 16.92 12.63 C 11 12.63 9.25 17.78 9.25 19.86 C 9.25 24.98 16.98 25.57 16.41 32.77 C 16.08 36.93 13.37 49.95 27.92 49.95 C 36.38 49.95 38.55 41.53 44.67 38.55 C 53.11 34.99 65.01 30.31 65.01 14.4 C 64.65 0.02 49.83 0.02 49.1 0.02 C 34.31 0.02 43.65 19.3 31.51 19.3 Z M 31.51 19.3" />
    <path fill="#f7c000" fill-rule="evenodd" d="M 20.43 4.54 C 7.07 4.54 8.02 15.56 8.02 16.31 C 8.02 23.55 2.44 28.12 2.44 32.06 C 2.44 38.77 10.81 40.36 15.86 38.77 C 29.97 34.95 38.5 42.32 53.48 42.06 C 64.23 41.76 68 33.98 68 28.12 C 67.44 15.35 50.68 16.19 47.2 16.19 C 30.58 16.19 33.23 4.54 20.43 4.54 Z M 20.43 4.54" />
    <path fill="#008746" fill-rule="evenodd" d="M 16.01 38.73 C 15.96 36.32 16.3 34.09 16.41 32.77 C 16.98 25.57 9.25 24.98 9.25 19.86 C 9.25 17.78 11 12.63 16.92 12.63 C 25.42 12.63 25.73 19.3 31.51 19.3 C 35.46 19.3 37.14 17.26 38.11 14.51 C 40.35 15.52 43.23 16.19 47.2 16.19 C 49.71 16.19 59.12 15.75 64.39 20.3 C 61.83 31.56 51.96 35.48 44.67 38.55 C 43.5 39.12 42.47 39.89 41.52 40.76 C 32.98 38.93 25.85 36.11 16.01 38.73 Z M 16.01 38.73" />
    <path fill="#008746" fill-rule="evenodd" d="M 33.9 11.13 C 34.02 11.63 34.1 12.15 34.1 12.67 C 34.1 18.64 25.63 18.18 24.71 18.18 C 14.07 18.18 34.1 20.36 34.1 20.36 L 40.07 15.34 C 40.07 15.34 33.34 8.93 33.9 11.13 Z M 33.9 11.13" />
    <path fill="#df2b1e" fill-rule="evenodd" d="M 8.02 16.31 C 8.02 20.04 6.54 23.07 5.1 25.66 C 8 28.54 12.06 31.28 17.05 33.35 C 22.36 35.54 15.46 16.18 12.49 14.26 C 11.04 13.31 9.77 12.39 8.58 11.72 C 7.86 14 8.02 16.01 8.02 16.31 Z M 8.02 16.31" />
    <path fill="#e77312" fill-rule="evenodd" d="M 8.58 11.72 C 7.49 11.11 6.47 10.71 5.42 10.71 C 1.38 10.71 0.01 14.67 0.01 16.11 C 0.01 18.95 1.82 22.4 5.1 25.66 C 6.54 23.07 8.02 20.04 8.02 16.31 C 8.02 16.01 7.86 14 8.58 11.72 L 8.58 11.72 Z M 8.58 11.72" />
    <path fill="#1a408e" fill-rule="evenodd" d="M 38.11 14.51 C 37.14 17.26 35.46 19.3 31.51 19.3 C 30.21 19.3 29.18 18.96 28.28 18.44 C 26.47 18.38 25.01 18.18 24.71 18.18 C 19.05 18.18 15.24 16.07 12.23 14.09 C 10.01 15.77 9.25 18.49 9.25 19.86 C 9.25 24.98 16.98 25.57 16.41 32.77 C 16.4 32.86 16.39 32.96 16.38 33.07 C 21.83 35.42 28.43 36.97 35.89 36.97 C 41.55 36.97 59.35 35.53 59.35 21.27 C 59.35 19.93 59.19 18.68 58.89 17.5 C 58.87 17.46 58.85 17.43 58.82 17.4 C 54.09 15.97 48.95 16.19 47.2 16.19 C 43.23 16.19 40.35 15.52 38.11 14.51 Z M 38.11 14.51" />
    <path fill="#007440" fill-rule="evenodd" d="M 42.02 2.93 C 48.2 4.76 56.78 9.21 58.88 17.42 C 54.13 15.97 48.96 16.19 47.2 16.19 C 42.91 16.19 39.9 15.41 37.58 14.26 C 36.2 13.57 39.67 2.24 42.02 2.93 Z M 42.02 2.93" />
    <path fill="#029de1" fill-rule="evenodd" d="M 41.92 2.91 C 39.61 2.23 37.65 1.92 36.5 1.92 C 31.82 1.92 31.84 5.19 31.84 5.74 C 31.84 7.1 33.69 9.38 34.04 11.88 L 34.04 11.88 C 35.19 12.86 36.49 13.77 38.11 14.51 C 39.4 10.86 39.45 5.97 41.92 2.91 Z M 41.92 2.91" />
    <path fill="#f7c000" fill-rule="evenodd" d="M 8.58 11.72 C 9.63 8.41 12.52 4.54 20.43 4.54 C 27.96 4.54 30.14 8.56 34.04 11.88 C 34.08 12.14 34.1 12.41 34.1 12.67 C 34.1 18.64 25.63 18.18 24.71 18.18 C 16.53 18.18 12.21 13.76 8.58 11.72 L 8.58 11.72 Z M 8.58 11.72" />
    <path fill="#029de1" fill-rule="evenodd" d="M 27.69 18.06 C 24.94 16.13 23.08 12.63 16.92 12.63 C 14.91 12.63 13.38 13.22 12.23 14.09 C 15.24 16.07 19.05 18.18 24.71 18.18 C 25.03 18.18 26.24 18.24 27.69 18.06 L 27.69 18.06 Z M 27.69 18.06" />
    <path fill="#ffffff" fill-rule="evenodd" d="M 21.64 29.34 C 23.11 29.34 23.89 28.41 23.89 27.24 C 23.89 26.26 23.23 25.46 22.4 25.33 C 23.14 25.18 23.74 24.53 23.74 23.55 C 23.74 22.51 22.98 21.57 21.51 21.57 L 17.43 21.57 L 17.43 29.34 L 21.64 29.34 Z M 21.15 24.68 L 19.08 24.68 L 19.08 22.99 L 21.15 22.99 C 21.71 22.99 22.05 23.35 22.05 23.84 C 22.05 24.33 21.71 24.68 21.15 24.68 L 21.15 24.68 Z M 21.21 27.9 L 19.08 27.9 L 19.08 26.1 L 21.21 26.1 C 21.86 26.1 22.21 26.52 22.21 27.01 C 22.21 27.57 21.83 27.9 21.21 27.9 L 21.21 27.9 Z M 31.3 29.34 L 29.56 26.38 C 30.39 26.18 31.25 25.45 31.25 24.07 C 31.25 22.63 30.27 21.57 28.65 21.57 L 25.03 21.57 L 25.03 29.34 L 26.68 29.34 L 26.68 26.58 L 27.89 26.58 L 29.41 29.34 L 31.3 29.34 Z M 28.41 25.12 L 26.68 25.12 L 26.68 23.03 L 28.41 23.03 C 29.07 23.03 29.57 23.42 29.57 24.07 C 29.57 24.73 29.07 25.12 28.41 25.12 L 28.41 25.12 Z M 39.62 29.34 L 36.63 21.57 L 34.56 21.57 L 31.57 29.34 L 33.45 29.34 L 33.94 28.02 L 37.26 28.02 L 37.73 29.34 L 39.62 29.34 Z M 36.8 26.57 L 34.39 26.57 L 35.6 23.22 L 36.8 26.57 Z M 42.9 29.48 C 44.99 29.48 46 28.41 46 26.98 C 46 24.09 41.55 24.91 41.55 23.68 C 41.55 23.21 41.95 22.9 42.66 22.9 C 43.45 22.9 44.28 23.17 44.91 23.75 L 45.83 22.54 C 45.06 21.83 44.04 21.46 42.81 21.46 C 40.99 21.46 39.87 22.53 39.87 23.82 C 39.87 26.74 44.33 25.8 44.33 27.17 C 44.33 27.61 43.89 28.03 42.98 28.03 C 41.91 28.03 41.07 27.56 40.52 26.98 L 39.63 28.24 C 40.35 28.98 41.42 29.48 42.9 29.48 L 42.9 29.48 Z M 48.66 29.34 L 48.66 21.57 L 47.01 21.57 L 47.01 29.34 L 48.66 29.34 Z M 55.02 29.34 L 55.02 27.88 L 51.74 27.88 L 51.74 21.57 L 50.09 21.57 L 50.09 29.34 L 55.02 29.34 Z M 55.02 29.34" />
</svg>