<?xml version="1.0" encoding="utf-8"?>
<!-- Generator: Avocode 2.6.0 - http://avocode.com -->
<svg height="32" width="52" xmlns:xlink="http://www.w3.org/1999/xlink" xmlns="http://www.w3.org/2000/svg" viewBox="0 0 52 32">
    <path fill="#131412" fill-rule="evenodd" d="M 6.58 10.3 L 6.58 12.45 C 4.68 11.29 2.59 10.33 0 10.12 C 2.66 9.84 4.76 10.05 6.58 10.3 L 6.58 10.3 Z M 6.58 2.41 L 6.58 4.14 C 5.28 4.19 3.97 4.4 2.61 4.82 C 3.84 3.96 5.15 3.13 6.58 2.41 L 6.58 2.41 Z M 6.58 29.44 L 4 29.44 L 2.59 32 L 0.13 32 L 6.58 20.66 L 6.58 24.62 L 4.83 27.52 L 6.58 27.52 L 6.58 29.44 L 6.58 29.44 Z M 18.94 20.43 L 18.94 22.34 L 17.19 22.34 L 16.62 25.09 L 18.94 25.09 L 18.94 27.11 L 16.17 27.11 L 15.55 30.14 L 17.87 30.14 C 18.29 30.14 18.66 30.11 18.94 30.11 L 18.94 31.97 C 18.73 32 18.5 32 18.26 32 L 12.75 32 L 15.21 20.43 L 18.94 20.43 L 18.94 20.43 Z M 18.94 13.51 L 18.94 17.55 C 17.77 17.53 16.54 17.37 15.23 17.09 C 11.97 16.34 9.46 14.19 6.58 12.45 L 6.58 10.3 C 9.93 10.77 12.44 11.37 16.17 9.35 C 16.85 11.16 17.79 12.5 18.94 13.51 L 18.94 13.51 Z M 18.94 0.16 L 18.94 8.39 C 18.66 8.18 18.32 7.97 17.98 7.79 C 14.14 5.51 10.48 4.04 6.58 4.14 L 6.58 2.41 C 9.35 1.01 12.57 0 16.49 0 C 17.32 0 18.13 0.05 18.94 0.16 L 18.94 0.16 Z M 8.62 29.44 L 6.58 29.44 L 6.58 27.52 L 8.33 27.52 L 7.66 22.83 L 6.58 24.62 L 6.58 20.66 L 6.74 20.43 L 9.41 20.43 L 11.29 32 L 9.01 32 L 8.62 29.44 L 8.62 29.44 Z M 18.94 17.55 C 22.47 17.66 25.58 16.73 28.51 15.64 C 24.66 16.03 21.35 15.59 18.94 13.51 L 18.94 17.55 L 18.94 17.55 Z M 18.94 31.97 L 18.94 30.11 C 19.33 30.06 19.65 30.01 19.83 29.95 C 20.14 29.83 20.43 29.62 20.61 29.33 C 20.82 29.05 20.93 28.74 20.93 28.43 C 20.93 28.04 20.77 27.73 20.48 27.5 C 20.2 27.24 19.73 27.11 19.05 27.11 L 18.94 27.11 L 18.94 25.09 C 19.52 25.06 19.94 25.01 20.22 24.91 C 20.59 24.8 20.85 24.62 21.03 24.36 C 21.22 24.08 21.29 23.79 21.29 23.51 C 21.29 23.2 21.22 22.96 21.06 22.78 C 20.88 22.58 20.64 22.47 20.33 22.39 C 20.14 22.37 19.73 22.34 19.05 22.34 L 18.94 22.34 L 18.94 20.43 L 19.18 20.43 C 20.07 20.43 20.67 20.45 21.01 20.5 C 21.58 20.58 22.08 20.74 22.47 20.97 C 22.86 21.2 23.18 21.51 23.38 21.93 C 23.59 22.32 23.7 22.76 23.7 23.22 C 23.7 23.87 23.51 24.44 23.15 24.91 C 22.78 25.37 22.23 25.73 21.48 25.97 C 22.08 26.12 22.55 26.43 22.89 26.85 C 23.2 27.26 23.38 27.73 23.38 28.27 C 23.38 28.94 23.18 29.62 22.78 30.24 C 22.39 30.86 21.84 31.3 21.14 31.59 C 20.56 31.79 19.86 31.95 18.94 31.97 L 18.94 31.97 Z M 30.15 20.66 L 30.15 24.62 L 28.43 27.52 L 30.15 27.52 L 30.15 29.44 L 27.56 29.44 L 26.18 32 L 23.7 32 L 30.15 20.66 L 30.15 20.66 Z M 30.15 4.97 L 30.15 13.88 C 24.61 13.44 22.34 10.67 18.94 8.39 L 18.94 0.16 C 22.89 0.6 26.65 2.15 30.15 4.97 L 30.15 4.97 Z M 30.15 29.44 L 30.15 27.52 L 31.9 27.52 L 31.25 22.83 L 30.15 24.62 L 30.15 20.66 L 30.31 20.43 L 32.97 20.43 L 34.88 32 L 32.61 32 L 32.22 29.44 L 30.15 29.44 L 30.15 29.44 Z M 47.29 20.43 L 47.29 20.63 L 40.97 32 L 38.41 32 L 36.32 20.43 L 38.72 20.43 L 40.18 29.18 L 45.04 20.43 L 47.29 20.43 L 47.29 20.43 Z M 47.29 3.81 L 47.29 4.94 C 45.36 5.72 43.74 6.71 42.48 7.95 C 37.94 12.32 34.18 14.01 31.17 13.93 C 30.83 13.93 30.49 13.9 30.15 13.88 L 30.15 4.97 C 31.07 5.7 31.95 6.5 32.82 7.38 C 35.06 9.71 40.47 10.54 40.34 7.38 C 40.18 3.29 33.34 3.08 31.48 4.19 C 32.58 2.93 34.07 1.29 38.93 1.24 C 42.22 1.22 44 3.06 47.29 3.81 L 47.29 3.81 Z M 47.42 20.43 L 47.29 20.63 L 47.29 20.43 L 47.42 20.43 L 47.42 20.43 Z M 47.42 3.83 L 47.42 4.92 C 47.37 4.92 47.34 4.94 47.29 4.94 L 47.29 3.81 C 47.34 3.83 47.37 3.83 47.42 3.83 L 47.42 3.83 Z M 48.83 4.06 L 48.83 4.43 C 48.34 4.56 47.87 4.74 47.42 4.92 L 47.42 3.83 C 47.87 3.94 48.34 4.01 48.83 4.06 L 48.83 4.06 Z M 45.7 12.38 L 45.7 14.21 C 45.62 13.9 45.57 13.59 45.57 13.28 C 45.57 12.94 45.62 12.66 45.7 12.38 L 45.7 12.38 Z M 49.69 4.12 L 49.69 4.17 C 49.41 4.25 49.12 4.32 48.83 4.43 L 48.83 4.06 C 49.12 4.09 49.41 4.12 49.69 4.12 L 49.69 4.12 Z M 49.69 4.17 L 49.69 4.12 L 49.85 4.12 C 49.8 4.14 49.75 4.14 49.69 4.17 L 49.69 4.17 Z M 48.79 11.62 L 47.32 11.62 L 47.32 14.99 L 48 14.99 L 48 13.59 L 48.19 13.59 C 48.39 13.59 48.55 13.64 48.68 13.75 L 48.79 13.85 L 48.79 13.05 L 48 13.05 L 48 12.17 L 48.79 12.17 L 48.79 11.62 L 48.79 11.62 Z M 48.79 10.1 L 48.79 10.74 C 48.34 10.74 47.9 10.85 47.51 11.06 C 47.09 11.29 46.77 11.6 46.54 12.01 C 46.33 12.43 46.2 12.82 46.2 13.28 C 46.2 13.72 46.33 14.16 46.54 14.55 C 46.75 14.96 47.09 15.27 47.48 15.51 C 47.9 15.74 48.32 15.84 48.79 15.84 L 48.79 16.47 L 48.76 16.47 C 48.21 16.47 47.66 16.34 47.17 16.05 C 46.64 15.77 46.28 15.38 45.99 14.86 C 45.89 14.65 45.78 14.45 45.7 14.21 L 45.7 12.38 C 45.78 12.14 45.89 11.91 46.02 11.7 C 46.3 11.18 46.67 10.8 47.19 10.51 C 47.69 10.25 48.21 10.1 48.76 10.1 L 48.79 10.1 L 48.79 10.1 Z M 48.79 13.85 C 48.89 13.95 49.02 14.16 49.15 14.45 L 49.44 14.99 L 50.3 14.99 L 49.88 14.29 L 49.65 13.88 C 49.54 13.77 49.47 13.67 49.41 13.62 C 49.36 13.59 49.28 13.54 49.18 13.51 C 49.47 13.46 49.67 13.36 49.86 13.18 C 50.01 13 50.09 12.79 50.09 12.58 C 50.09 12.4 50.04 12.25 49.96 12.09 C 49.88 11.94 49.78 11.83 49.65 11.75 C 49.52 11.7 49.33 11.65 49.1 11.62 L 48.79 11.62 L 48.79 12.17 C 48.89 12.17 49 12.19 49.05 12.19 C 49.15 12.25 49.2 12.3 49.28 12.38 C 49.33 12.43 49.36 12.53 49.36 12.61 C 49.36 12.71 49.33 12.76 49.28 12.84 C 49.2 12.92 49.13 12.97 49.05 13.02 C 49 13.02 48.92 13.05 48.79 13.05 L 48.79 13.85 L 48.79 13.85 Z M 51.37 13.39 L 51.37 15.17 C 51.11 15.53 50.77 15.82 50.38 16.05 C 49.88 16.34 49.33 16.47 48.79 16.47 L 48.79 15.84 C 49.23 15.84 49.65 15.74 50.07 15.51 C 50.48 15.27 50.8 14.96 51.03 14.55 C 51.24 14.19 51.35 13.8 51.37 13.39 L 51.37 13.39 Z M 51.37 11.39 L 51.37 13.15 C 51.35 12.76 51.24 12.38 51.01 12.01 C 50.77 11.6 50.46 11.29 50.07 11.06 C 49.65 10.85 49.23 10.74 48.79 10.74 L 48.79 10.1 C 49.33 10.1 49.86 10.25 50.35 10.51 C 50.77 10.74 51.11 11.03 51.37 11.39 L 51.37 11.39 Z M 51.37 15.17 L 51.37 11.39 C 51.43 11.5 51.5 11.6 51.56 11.7 C 51.84 12.22 52 12.74 52 13.28 C 52 13.83 51.84 14.37 51.58 14.86 C 51.5 14.99 51.45 15.09 51.37 15.17 L 51.37 15.17 Z M 51.37 15.17" />
</svg>