<?xml version="1.0" encoding="utf-8"?>
<!-- Generator: Avocode 2.6.0 - http://avocode.com -->
<svg height="20" width="29" xmlns:xlink="http://www.w3.org/1999/xlink" xmlns="http://www.w3.org/2000/svg" viewBox="0 0 29 20">
    <path fill="#479544" fill-rule="evenodd" d="M 5.27 5.54 L 26.7 0 L 29 9.13 L 7.91 14.67 L 5.27 5.54" />
    <path fill="#72b343" fill-rule="evenodd" d="M 6.59 5.33 L 29 5.33 L 29 16 L 6.59 16 L 6.59 5.33 Z M 6.59 5.33" />
    <path fill="#fffffe" fill-rule="evenodd" d="M 21.93 13.35 C 22.29 13.59 22.55 13.77 22.99 13.86 L 22.99 14.67 L 24.16 14.67 L 24.16 13.9 C 24.92 13.91 25.46 13.59 25.77 13.31 C 26.2 12.9 26.17 12.58 26.18 12.01 C 26.19 11.51 25.83 10.42 24.17 10.15 C 23.35 9.98 22.75 9.66 22.61 9.55 C 22.5 9.49 22.05 8.64 23.75 8.55 C 24.9 8.49 25 9.4 25.07 9.63 L 26.38 9.63 C 26.3 8.91 26.03 7.51 24.16 7.51 L 24.16 6.67 L 22.99 6.67 L 22.99 7.44 C 22.44 7.52 22.09 7.71 21.78 7.97 C 21.35 8.34 21.15 8.76 21.14 9.3 C 21.13 9.89 21.44 10.27 21.91 10.6 C 22.24 10.86 22.99 11.2 24.28 11.45 C 25.02 11.6 25.31 13.03 23.63 13.02 C 22.12 13.01 22.38 11.94 22.32 11.7 L 21.12 11.7 C 20.99 12.38 21.36 12.96 21.93 13.35" />
    <path fill="#f9ca4a" fill-rule="evenodd" d="M 0 10.01 C 0 4.48 4.43 0 9.88 0 C 15.35 0 19.77 4.48 19.77 10.01 C 19.77 15.53 15.35 20 9.88 20 C 4.43 20 0 15.53 0 10.01" />
    <path fill="#910008" fill-rule="evenodd" d="M 10.01 13.86 C 13.44 13.81 14.95 12.56 15.54 12.07 C 15.74 11.9 15.86 12.06 15.8 12.39 C 15.06 15.87 12.45 17.33 10.01 17.33 C 7.57 17.33 4.77 15.87 3.97 12.39 C 3.9 12.07 4.05 11.9 4.25 12.08 C 4.94 12.68 6.6 13.91 10.01 13.86" />
    <path fill="#544313" fill-rule="evenodd" d="M 11.86 8 C 11.86 7.26 12.45 6.67 13.18 6.67 C 13.91 6.67 14.5 7.26 14.5 8 C 14.5 8.74 13.91 9.33 13.18 9.33 C 12.45 9.33 11.86 8.74 11.86 8" />
    <path fill="#544313" fill-rule="evenodd" d="M 5.27 8 C 5.27 7.26 5.86 6.67 6.59 6.67 C 7.32 6.67 7.91 7.26 7.91 8 C 7.91 8.74 7.32 9.33 6.59 9.33 C 5.86 9.33 5.27 8.74 5.27 8" />
</svg>