<?xml version="1.0" standalone="no"?>
<!-- Generator: Adobe Fireworks 10, Export SVG Extension by Aaron Beall (http://fireworks.abeall.com) . Version: 0.6.1  -->
<!DOCTYPE svg PUBLIC "-//W3C//DTD SVG 1.1//EN" "http://www.w3.org/Graphics/SVG/1.1/DTD/svg11.dtd">
<svg xmlns="http://www.w3.org/2000/svg" xmlns:xlink="http://www.w3.org/1999/xlink" width="20" height="20" viewBox="0 0 20 20">
  <defs>
  <path id="m1kza" d="M1283.77 31.71s-.86 1.09-.89 1.14c-.1.19-.11.11-.18.08 0 0-1.52-.82-2.33-1.99l-.39-.55s-1.03-1.74-.92-2.87c.01-.13-.1-.05.08-.09.12-.03 1.29-.13 1.29-.13l-1.16-3.45-1.06.09s-2.38-.18-2.22 1.57l.14 1.28c1.71 4.84 6.26 8.86 6.26 8.86l.92.64c.35.18.67.2.97.11.72.82 1.56 2.05 2.25 2.05 3.11 0 4.47-7.19 4.47-8.55 0-5.05-4.47-9.9-10.1-9.9s-9.9 4.27-9.9 9.9c0 5.05 3.88 10.1 9.9 10.1.59 0 2.33-.39 3.3-.78.2 0 .39-.39.39-.58-.19-.19-.39-.58-.97-.58-.39 0-2.13.39-2.72.39-4.46 0-8.35-3.5-8.35-8.55 0-4.46 3.3-8.35 8.35-8.35 4.47 0 8.55 3.3 8.55 8.55 0 2.52-.59 4.27-2.72 6.79-.43-.42-.91-.96-1.33-1.37.29-.37.45-.71.45-.71l.8-1.85-2.88-1.25"></path>
  </defs>
  <g>
    <g transform="translate(-1271 -20)">
      <use fill="#757575" xlink:href="#m1kza"></use>
    </g>
  </g>
</svg>