<?xml version="1.0" encoding="utf-8"?>
<!-- Generator: Avocode 2.6.0 - http://avocode.com -->
<svg height="41" width="64" xmlns:xlink="http://www.w3.org/1999/xlink" xmlns="http://www.w3.org/2000/svg" viewBox="0 0 64 41">
    <path fill="#2f4972" fill-rule="evenodd" d="M 32.39 19.49 C 33.53 18.51 34.63 17.17 35.35 15.77 C 34.37 15.46 33.38 15.2 32.39 15.2 L 32.39 19.49 L 32.39 19.49 Z M 31.66 19.44 C 30.47 18.51 29.37 17.17 28.65 15.77 C 29.63 15.41 30.62 15.2 31.66 15.2 L 31.66 19.44 L 31.66 19.44 Z M 32.39 0.41 C 33.53 1.34 34.63 2.69 35.35 4.08 C 34.37 4.45 33.38 4.65 32.39 4.65 L 32.39 0.41 L 32.39 0.41 Z M 31.66 0.41 C 30.47 1.34 29.37 2.69 28.65 4.08 C 29.63 4.4 30.62 4.65 31.66 4.65 L 31.66 0.41 L 31.66 0.41 Z M 32.39 14.48 L 32.39 10.29 L 36.81 10.29 C 36.81 11.94 36.39 13.6 35.67 15.1 C 34.68 14.74 33.48 14.48 32.39 14.48 L 32.39 14.48 Z M 42.01 10.29 L 37.54 10.29 C 37.48 12.1 37.12 13.75 36.39 15.41 C 37.33 15.82 38.21 16.39 39.04 17.06 C 40.81 15.25 41.9 12.82 42.01 10.29 L 42.01 10.29 Z M 38.47 17.53 C 37.8 16.96 36.91 16.39 36.03 16.03 C 35.25 17.53 34.26 18.77 33.01 19.85 C 35.04 19.6 36.91 18.87 38.47 17.53 L 38.47 17.53 Z M 31.66 14.48 L 31.66 10.29 L 27.19 10.29 C 27.24 11.94 27.61 13.65 28.33 15.1 C 29.37 14.74 30.52 14.48 31.66 14.48 L 31.66 14.48 Z M 21.99 10.29 L 26.46 10.29 C 26.51 12.1 26.93 13.7 27.66 15.41 C 26.67 15.82 25.79 16.39 24.96 17.06 C 23.19 15.25 22.1 12.87 21.99 10.29 L 21.99 10.29 Z M 25.53 17.53 C 26.26 16.96 27.09 16.34 27.97 16.03 C 28.75 17.53 29.74 18.77 30.99 19.85 C 28.96 19.6 27.09 18.87 25.53 17.53 L 25.53 17.53 Z M 32.39 5.38 L 32.39 9.56 L 36.81 9.56 C 36.81 7.86 36.39 6.26 35.67 4.71 C 34.63 5.12 33.48 5.33 32.39 5.38 L 32.39 5.38 Z M 42.01 9.56 L 37.54 9.56 C 37.48 7.76 37.07 6.1 36.39 4.45 C 37.33 4.03 38.21 3.46 39.04 2.79 C 40.92 4.71 41.9 7.03 42.01 9.56 L 42.01 9.56 Z M 38.47 2.27 C 37.74 2.9 36.91 3.46 36.03 3.83 C 35.25 2.33 34.26 1.14 33.01 0 C 35.04 0.21 36.91 0.98 38.47 2.27 L 38.47 2.27 Z M 31.66 5.38 L 31.66 9.56 L 27.19 9.56 C 27.24 7.91 27.61 6.26 28.33 4.71 C 29.37 5.12 30.52 5.33 31.66 5.38 L 31.66 5.38 Z M 21.99 9.56 L 26.46 9.56 C 26.51 7.7 26.93 6.1 27.66 4.45 C 26.67 4.03 25.79 3.46 24.96 2.79 C 23.14 4.6 22.1 6.98 21.99 9.56 L 21.99 9.56 Z M 25.53 2.27 C 26.26 2.9 27.09 3.46 27.97 3.83 C 28.7 2.33 29.79 1.09 30.99 0 C 28.96 0.21 27.09 0.98 25.53 2.27 L 25.53 2.27 Z M 0 13.24 L 19.96 13.24 C 20.69 16.91 23.24 19.96 28.33 22.08 C 27.76 23.83 25.79 25.44 23.76 25.44 L 12.89 25.44 C 11.23 25.44 9.93 24.04 9.41 22.9 L 20.43 22.9 C 21.11 22.8 21.11 22.28 20.48 22.18 L 9.62 22.18 C 8.21 22.18 6.97 20.99 6.24 19.7 L 18.82 19.7 C 19.5 19.6 19.5 19.08 18.82 18.97 L 6.13 18.97 C 4.84 18.97 3.69 17.48 3.22 16.49 L 17.16 16.49 C 17.83 16.39 17.83 15.77 17.16 15.72 L 2.96 15.72 C 1.82 15.72 0.78 14.53 0 13.24 L 0 13.24 Z M 64 13.24 L 44.04 13.24 C 43.31 16.91 40.76 19.96 35.67 22.08 C 36.24 23.83 38.21 25.44 40.24 25.44 L 51.11 25.44 C 52.77 25.44 54.07 24.04 54.59 22.9 L 43.57 22.9 C 42.89 22.8 42.89 22.28 43.52 22.18 L 54.38 22.18 C 55.79 22.18 57.03 20.99 57.76 19.7 L 45.18 19.7 C 44.5 19.6 44.5 19.08 45.18 18.97 L 57.86 18.97 C 59.16 18.97 60.31 17.48 60.78 16.49 L 46.84 16.49 C 46.17 16.39 46.17 15.77 46.84 15.72 L 61.04 15.72 C 62.18 15.72 63.22 14.53 64 13.24 L 64 13.24 Z M 41.49 41 L 47.88 27.97 L 52.09 27.97 L 54.75 41 L 50.74 41 L 50.59 39.45 L 46.38 39.45 L 45.7 41 L 41.49 41 L 41.49 41 Z M 47.42 36.76 L 50.12 36.76 L 49.44 31.95 L 47.42 36.76 L 47.42 36.76 Z M 33.12 41 L 34.63 31.23 L 30.88 31.23 L 31.51 27.92 L 42.94 27.92 L 42.32 31.23 L 38.78 31.23 L 37.33 41 L 33.12 41 L 33.12 41 Z M 15.96 41 L 22.41 27.97 L 26.62 27.97 L 29.22 41 L 25.32 41 L 25.06 39.45 L 20.9 39.45 L 20.22 41 L 15.96 41 L 15.96 41 Z M 21.94 36.76 L 24.64 36.76 L 23.92 31.95 L 21.94 36.76 L 21.94 36.76 Z M 9.1 41 L 11.7 27.97 L 15.96 27.97 L 13.36 41 L 9.1 41 L 9.1 41 Z M 9.1 41" />
</svg>